<svg xmlns="http://www.w3.org/2000/svg" viewBox="0 0 64 64"><defs><style>.cls-1{fill:white;}</style></defs><title>Fruit Lemon</title><g id="Layer_2" data-name="Layer 2"><g id="Layer_1-2" data-name="Layer 1"><path class="cls-1" d="M63.94,5.16A6,6,0,0,0,56.14.3,15.37,15.37,0,0,1,48,.49,20.46,20.46,0,0,0,43.51,0h0A43.51,43.51,0,0,0,0,43.51H0A20.46,20.46,0,0,0,.49,48a15.37,15.37,0,0,1-.2,8.16A6,6,0,0,0,7.86,63.7a15.37,15.37,0,0,1,8.16-.2,20.46,20.46,0,0,0,4.46.49h0A43.51,43.51,0,0,0,64,20.49h0A20.46,20.46,0,0,0,63.51,16a15.37,15.37,0,0,1,.2-8.16A6,6,0,0,0,63.94,5.16Z"/></g></g></svg>