<svg id="Calque_1" data-name="Calque 1" xmlns="http://www.w3.org/2000/svg" viewBox="0 0 355.18 229.08"><defs><style>.cls-1{fill:#fff;}</style></defs><title>mangadraf</title><path class="cls-1" d="M730.91,1131.41c-2.26,32.19-4.51,63.88-6.7,95.57-1.16,16.93-2.39,33.86-3.21,50.81-.3,6-2.41,10-6.87,14.36-8.57,8.4-19.11,9.17-29.71,10.76l-90.75,13.64c-3.45.52-6.93.89-10.36,1.5-2.85.5-3.53-.57-3-3.24q5.18-27.94,10.23-55.92,12.32-68.21,24.59-136.42c1-5.4,2-10.78,2.89-16.2.36-2.28,1.32-3,3.63-2.93,28.12.69,56.24,1.39,84.37,1.81,4.58.07,7.89,1.3,10.69,4.95,3.54,4.62,7.36,9.05,11.34,13.3C730.37,1125.92,731.65,1128.49,730.91,1131.41ZM657.81,1247c4.88-2.79,8.51-5.07,12.34-7,2.72-1.35,3.66-3.11,3.73-6.19.47-20.24,1.15-40.48,1.86-60.72.16-4.55-3.75-5-6.3-5.67-2.79-.7-2,2.74-2.26,4.35-2.12,15.78-4.08,31.59-6,47.39C660,1228,659,1236.9,657.81,1247Z" transform="translate(-375.94 -1103.33)"/><path class="cls-1" d="M595.08,1117c-15.63-.49-31.25-1.23-46.87-2.06-3.34-.18-5.38.84-7.36,3.61-11.24,15.66-22.7,31.16-34.62,47.44-2.84-16.42-5.65-31.8-8.05-47.24-.53-3.39-1.8-4-4.77-3.77-15.28,1-30.55,2-45.84,2.66-3.4.15-4.71,1.44-5.73,4.57q-24.82,76-49.9,151.93c-5.29,16.07-10.61,32.14-16,48.44a14.94,14.94,0,0,0,2.26.16c23-2.14,46.05-4.37,69.09-6.39,3.18-.28,4.34-1.31,5.06-4.51,6.52-29.12,13.3-58.17,20.26-88.34,4.32,17.19,8.38,33.35,12.7,50.5,10.4-14.27,20.17-27.69,29.94-41.11l1.2.63c-1.62,6.93-3.22,13.85-4.87,20.77-5.94,24.89-11.82,49.79-17.92,74.64-.86,3.49-.22,3.79,3.08,3.23q36.15-6.09,72.38-11.78c3-.48,4.13-1.68,4.48-4.56,2.37-19.66,4.86-39.31,7.32-59q4.56-36.29,9.13-72.58l6.42-67.1A6.36,6.36,0,0,0,595.08,1117Z" transform="translate(-375.94 -1103.33)"/></svg>