<svg id="Calque_1" data-name="Calque 1" xmlns="http://www.w3.org/2000/svg" viewBox="0 0 410.28 481.1"><defs><style>.cls-1{fill:#fff;}</style></defs><title>TikTok</title><path class="cls-1" d="M652.35,1138.39c0,66.53-.38,131.49.11,196.45.49,64.59-41.48,120.76-100.64,140.52-75.4,25.18-160.15-17.4-184.18-93.25-23.11-72.93,10.36-148.11,80.1-179.57,19.22-8.67,39.58-12.41,60.62-12.29,6.79,0,6.8.25,6.8,6.77,0,20.17-.08,40.33.07,60.49,0,3.65-.44,4.91-4.72,4.66a74.45,74.45,0,0,0-15.66,147.91c37.45,5.72,73.9-16.06,85.84-51.42a68.56,68.56,0,0,0,3.34-22.11q0-81.24.25-162.47c.14-56,.41-112,.46-168,0-3.79,1-4.63,4.67-4.6,20,.2,40,.11,60,.08,2.39,0,4.22-.3,4.72,3.28,5.75,40.67,26.34,71.72,61.22,93.31a123.45,123.45,0,0,0,51.5,17.45c3,.35,3.82,1.13,3.8,4.15-.14,24.16-.21,48.32,0,72.48,0,4.15-2,4.09-4.81,4.16-45.69,1.15-82.24-16.66-109.89-52.94C655,1142.21,654.1,1140.86,652.35,1138.39Z" transform="translate(-360.38 -1001.52)"/></svg>