<svg id="Calque_1" data-name="Calque 1" xmlns="http://www.w3.org/2000/svg" viewBox="0 0 338.36 326.41"><defs><style>.cls-1{fill:#fff;}</style></defs><title>Toyhouse</title><path class="cls-1" d="M445,1214.93H392.13L561.87,1045.5l48.36,49.07,1.24-.58v-23.86H663c.15,2,.44,4,.44,6.11,0,22.16-.06,44.32.2,66.47a12.24,12.24,0,0,0,3.13,7.74c19.5,19.83,39.23,39.44,58.89,59.12,1.25,1.26,2.43,2.59,4.79,5.11h-55.4v6.7q0,72,0,143.95c0,6.46,0,6.48-6.62,6.48q-108.71,0-217.41.1c-4.74,0-6.16-1.19-6.14-6.06.18-48,.11-96,.11-143.94Zm127.21,43.9V1351h16.87v-49.71h43.94V1351h16.53v-106.9H632.86c0,13-.2,25.61.1,38.24.11,4.55-1.43,5.64-5.72,5.53-11-.28-22-.08-33-.11-1.62,0-3.23-.19-5.34-.32V1244H495.07v14.6h28.11v92.25h19.65v-92.05Z" transform="translate(-392.13 -1045.5)"/></svg>