<svg id="Calque_1" data-name="Calque 1" xmlns="http://www.w3.org/2000/svg" viewBox="0 0 237.3 195.19"><defs><style>.cls-1{fill:#fff;}</style></defs><title>twitter</title><path class="cls-1" d="M516.28,1274.33c-23.52-3.36-40.83-16.78-44.81-34.35h18.75l.45-1.38c-10.69-3.31-19.85-8.83-26.61-17.72s-10.51-18.62-10.22-29.82l19.91,5.64c-20-19-25.18-40.34-13.34-66.3,26.89,31.35,60.28,48.62,101.42,51.57,0-7-.94-13.69.17-20,3.23-18.36,14.09-31.21,31.56-37.41,17.82-6.32,34.54-3.12,49,9.33,2.74,2.35,5,3.3,8.34,2.07,8.5-3.15,17-6.21,25.79-9.39-3.34,10.52-10.41,18.34-18.61,25.93l24.88-6.79a80.64,80.64,0,0,1-19.1,20.74c-3.22,2.48-4.42,5-4.41,9.12.08,62.84-42.45,127.37-116,139.08-32,5.1-62.67.25-91.34-15.42-1.46-.8-2.89-1.66-4.31-2.52-.4-.25-.73-.63-2.17-1.88C472,1296.36,495.15,1290.34,516.28,1274.33Z" transform="translate(-445.66 -1121.36)"/></svg>