<svg id="Calque_1" data-name="Calque 1" xmlns="http://www.w3.org/2000/svg" viewBox="0 0 1032.2 1080"><defs><style>.cls-1{fill:#fff;}.cls-2{fill:#602087;}</style></defs><title>twitch</title><path class="cls-1" d="M305,1759c0-45.49,0-91,.16-136.47,0-4.57-1.9-5.08-5.63-5.06-32,.09-64,0-96,0h-150c-6.56,0-6.57,0-6.57-6.38q0-369.44-.11-738.88c0-7.55,3.57-13.69,5.86-20.31C58.15,836.37,64.18,821,70,805.58c5.41-14.33,10.93-28.63,16.32-43,5.58-14.83,11.06-29.7,16.61-44.54q6.51-17.4,13.09-34.78c.53-1.38,1.41-2.68,1-4.28h962q0,325.41.09,650.83a13.41,13.41,0,0,1-4.32,10.41q-136.71,136.52-273.2,273.25a12.93,12.93,0,0,1-10.09,4.1c-66.31-.11-132.63,0-198.94-.16a13.47,13.47,0,0,0-10.47,4.38q-65.93,66.29-132,132.42c-1.28,1.28-4,1.94-3.09,4.77Zm118.12-166.67c2-.4,2.93-2.12,4.16-3.35q65.09-65,130-130.18c3.94-4,7.77-5.7,13.44-5.69,81.5.19,163,.1,244.49.21a12.32,12.32,0,0,0,9.62-3.94q78.14-78.45,156.5-156.66A11.23,11.23,0,0,0,985,1284q-.13-252.24-.08-504.48c0-6.42,0-6.42-6.51-6.42H217.94c-6.63,0-6.64,0-6.64,6.86v666.48c0,6.79,0,6.81,6.73,6.81H415c7.46,0,7.46,0,7.46,7.68q0,62.74,0,125.49C422.51,1588.36,422,1590.4,423.12,1592.33Z" transform="translate(-46.89 -679)"/><path class="cls-1" d="M563,1101.57c0,45-.06,90,.1,135,0,4.53-1.15,5.91-5.77,5.88q-41.24-.3-82.47,0c-4.64,0-5.81-1.39-5.8-5.92q.18-135,0-269.92c0-4.61,1.28-5.87,5.84-5.84q41.24.3,82.48,0c4.67,0,5.75,1.41,5.73,5.89C562.93,1011.59,563,1056.58,563,1101.57Z" transform="translate(-46.89 -679)"/><path class="cls-1" d="M728,961q44.71-.09,89.44-.23c2.59,0,3.66,1,3.44,3.56-.09,1.16,0,2.33,0,3.5v267.36c0,7.07,0,7.08-6.94,7.08q-40.23,0-80.45,0c-1.83,0-3.66-.16-5.48-.24l-.83-1.06c0-1.5-.14-3-.14-4.49q0-135,0-270c0-1.5.09-3,.14-4.49Z" transform="translate(-46.89 -679)"/><path class="cls-2" d="M728,961l-.81.94C727.14,961.39,727.38,961.05,728,961Z" transform="translate(-46.89 -679)"/><path class="cls-2" d="M727.18,1241l.83,1.06C727.35,1242,727.12,1241.62,727.18,1241Z" transform="translate(-46.89 -679)"/></svg>