<svg id="Calque_1" data-name="Calque 1" xmlns="http://www.w3.org/2000/svg" viewBox="0 0 415.54 397.4"><defs><style>.cls-1{fill:#fff;}</style></defs><title>webtoon</title><path class="cls-1" d="M231,355.61l-49.69,8.21q-43.6,7.21-87.2,14.38c-7.85,1.27-10.78-.75-13.21-8.56Q52.69,278.86,24.48,188.09c-3.18-10.25.21-14.83,11-14.84H74.52c-.43-2.09-.7-3.8-1.12-5.49Q62.33,123.46,51.23,79.17c-2.39-9.57.39-13.34,10.29-14.93Q127.58,53.62,193.6,42.8q75.9-12.3,151.81-24.56,22.66-3.67,45.33-7.44c7.78-1.28,12.71,3.3,11.84,11Q394.39,95,386.23,168.27c-.16,1.46,0,2.94,0,5h27c5.34,0,10.67-.08,16,0,6.65.13,10.42,4.44,9.61,11.09q-3.45,28.26-7,56.5c-3.55,28.25-7.21,56.49-10.6,84.75-.64,5.26-3,8.46-7.8,10.48q-83.74,35.13-167.44,70.38c-9.35,3.93-14.86.15-14.87-10.05C231,383,231,369.49,231,355.61Zm18,29.48a11.43,11.43,0,0,0,1.94-.37q74.75-31.43,149.42-63c1.69-.72,3.23-3.58,3.5-5.62,3.71-28.06,7.19-56.15,10.7-84.23,1.66-13.34,3.27-26.68,5-40.54h-5.9c-12.33,0-24.66.08-37,0-6.7-.07-10.12-3.83-9.88-10.41.06-1.5.17-3,.33-4.49q7.32-65.28,14.63-130.56c.56-5,.94-10,1.43-15.41L70.47,81.08c2.09,8.47,4,16.34,6,24.2q9.09,36.3,18.19,72.61c2.13,8.59-1.54,13.3-10.3,13.39-6,.05-12,0-18,0H44.41L96.62,359.44c17.78-2.92,35.16-5.76,52.54-8.64,28.9-4.78,57.79-9.65,86.7-14.36,9.36-1.52,13.16,1.84,13.18,11.19C249.06,360,249,372.28,249,385.09Z" transform="translate(-23.34 -10.59)"/><path class="cls-1" d="M325.12,160.63c16.15,6.05,19.05,21.92,6.58,32.83-4.5,3.94-9.4,6.21-15.77,6-13.44-.44-26.9-.14-40.67-.14V124.18c5.23-.51,10.61-1.06,16-1.53,8.28-.72,16.56-1.49,24.86-2A21.65,21.65,0,0,1,339.18,145C338.16,153,333.13,157.64,325.12,160.63Zm-29.93,21.83c5.6,0,10.71.09,15.82,0,3.6-.08,5.58-2.36,5.61-5.71a5.41,5.41,0,0,0-5.58-5.8c-5.23-.21-10.47,0-15.85,0Zm0-31.18c4.93,0,9.41.18,13.87-.06a5.56,5.56,0,0,0,5.58-5.91c0-3.37-1.88-5.79-5.44-6-4.6-.22-9.22,0-14,0Z" transform="translate(-23.34 -10.59)"/><path class="cls-1" d="M117.92,135.1l18-1.63,8.48,33.58,1.11.08c1.79-7.11,3.62-14.2,5.35-21.32,3.45-14.2,3.42-14.21,18.18-14.61.66,0,1.32,0,2.58,0q4.71,18.47,9.42,37l.8.13q2.63-10.08,5.24-20.18c.33-1.29.68-2.57,1-3.86,4.21-16.46,4.21-16.46,22.28-15.72-.25,1.42-.37,2.82-.74,4.15-5.34,19.24-10.81,38.44-16,57.72-1,3.54-2.45,5-6.15,4.64a61.12,61.12,0,0,0-11,0c-3.79.37-5.17-1.24-6.09-4.72-2.27-8.66-5-17.2-7.91-27.16-2.94,10.16-5.6,18.9-7.92,27.71-.83,3.14-2.22,4.39-5.5,4.16-5.13-.36-11.57,1.48-15.06-1-3.17-2.24-3.25-9-4.5-13.76C125.69,165.5,121.92,150.68,117.92,135.1Z" transform="translate(-23.34 -10.59)"/><path class="cls-1" d="M198.28,210.85a38.57,38.57,0,1,1-38.59,38.75A38.52,38.52,0,0,1,198.28,210.85Zm-15.34,38.82c0,10.14,7.33,18.44,16.35,18.53s16.79-8.47,16.7-18.75c-.09-10.09-7.55-18.23-16.66-18.18S182.93,239.48,182.94,249.67Z" transform="translate(-23.34 -10.59)"/><path class="cls-1" d="M234.7,171.82v8.73h32.1v18.73l-50.55-2.4V127.77l50.44-3.62v18.71l-31.38,1.85v7.71h27.54v19.4Z" transform="translate(-23.34 -10.59)"/><path class="cls-1" d="M311.07,248.22c-.07,19.5-15.43,35.26-34.18,35.07-18.47-.19-33.64-16.05-33.67-35.22,0-19.41,15.34-35.33,34.07-35.28S311.15,228.59,311.07,248.22Zm-48.1.35c0,9,6.7,16.53,14.61,16.59,8.08.07,14.89-7.71,14.81-16.9s-6.65-16.5-14.62-16.56C269.62,231.64,262.91,239.28,263,248.57Z" transform="translate(-23.34 -10.59)"/><path class="cls-1" d="M355.89,215.5h18.75V276c-5.55.43-10.16,1.08-14.75,1-1.52,0-3.41-1.71-4.4-3.13-5.89-8.45-11.57-17-18.25-25.42v29.93H317.39V214.6c5.49,0,10.95-.23,16.37.16,1.38.09,2.95,1.9,3.87,3.29,5.87,8.88,11.59,17.86,18.26,26.73Z" transform="translate(-23.34 -10.59)"/><path class="cls-1" d="M114.88,290.65V230.42H91.54v-19.5h66.22v20.35H137.32v58.1Z" transform="translate(-23.34 -10.59)"/></svg>