<svg id="Calque_1" data-name="Calque 1" xmlns="http://www.w3.org/2000/svg" viewBox="0 0 497.15 349.44"><defs><style>.cls-1{fill:#fff;}</style></defs><title>youtube</title><path class="cls-1" d="M568.09,1408.78c-23.14,0-46.27.13-69.4,0-18.63-.13-37.27-.25-55.87-1.06-20.06-.88-40.14-2-60.1-4.06-17.74-1.83-33.89-8.14-45.71-22.43-8.23-10-12.58-22-14.6-34.37a524.29,524.29,0,0,1-6.25-54.28c-1.4-24.55-2.26-49.21-1.7-73.78.61-27,2.7-54,4.93-81a105.41,105.41,0,0,1,11-38.38c9.43-18.88,25.41-29,45.73-32.05a322.24,322.24,0,0,1,38.65-3.17c54.57-1.52,109.14-3.16,163.73-3.75,32.84-.36,65.7.94,98.55,1.89,20.4.59,40.81,1.54,61.17,3,19,1.4,36.32,7.49,49.48,22.25,9,10.11,13.66,22.5,15.79,35.42a477.78,477.78,0,0,1,6.16,53.71c1.39,27.54,1.83,55.15,1.74,82.72,0,18.41-1.19,36.85-2.78,55.19-1.76,20.11-3.94,40.27-14.33,58.34-10.66,18.54-27.22,28.35-47.9,30.65-17.8,2-35.75,2.85-53.66,3.37-41.54,1.2-83.1,1.9-124.65,2.8ZM511,1307.54l145.85-79.82L511,1147.91Z" transform="translate(-314.29 -1060.35)"/></svg>